{"title":"Balzac and the Little Chinese Seamstress (Dai Sijie, 2002)","uid":9020465,"size":743979099,"categoryP":"video","categoryS":"movies","magnet":"?xt=urn:btih:bda6784c791c53dfc29e07a8d23f6b1b76850213&amp;dn=Balzac+and+the+Little+Chinese+Seamstress+%28Dai+Sijie%2C+2002%29&amp;tr=udp%3A%2F%2Ftracker.openbittorrent.com%3A80&amp;tr=udp%3A%2F%2Fopen.demonii.com%3A1337&amp;tr=udp%3A%2F%2Ftracker.coppersurfer.tk%3A6969&amp;tr=udp%3A%2F%2Fexodus.desync.com%3A6969","seeders":8,"leechers":1,"uploader":"moonflux","files":3,"time":1381274611,"description":"Based on the 2000 semi-autobiographical novel of the same title by Dai, the film revolves around two young Chinese boys of bourgeois background who were sent to a remote village in Sichuan province for three years of re-education during the Cultural Revolution. They both fell in love with a beautiful local girl, granddaughter of an old tailor and known to everyone as the Little Seamstress. During those years of intellectual oppression, the three found solace and liberation in a collection of banned translated novels by Western authors, among whom their favourite was Balzac. The film explores the themes of youth, love, and freedom in those dark times in China.\n\n\nGeneral\nComplete name                            : Balzac.And.The.Little.Chinese.Seamstress.2002.INT.DVDrip.Xvid-3Mhome.avi\nFormat                                   : AVI\nFormat/Info                              : Audio Video Interleave\nFile size                                : 701 MiB\nDuration                                 : 1h 46mn\nOverall bit rate mode                    : Variable\nOverall bit rate                         : 923 Kbps\nWriting application                      : VirtualDubMod 1.5.10.1 (build 2439/release)\nWriting library                          : VirtualDubMod build 2439/release\n\nVideo\nID                                       : 0\nFormat                                   : MPEG-4 Visual\nFormat profile                           : Advanced Simple@L5\nFormat settings, BVOP                    : 2\nFormat settings, QPel                    : No\nFormat settings, GMC                     : No warppoints\nFormat settings, Matrix                  : Default (H.263)\nMuxing mode                              : Packed bitstream\nCodec ID                                 : XVID\nCodec ID/Hint                            : XviD\nDuration                                 : 1h 46mn\nBit rate                                 : 790 Kbps\nWidth                                    : 640 pixels\nHeight                                   : 272 pixels\nDisplay aspect ratio                     : 2.35:1\nFrame rate                               : 23.976 fps\nColor space                              : YUV\nChroma subsampling                       : 4:2:0\nBit depth                                : 8 bits\nScan type                                : Progressive\nCompression mode                         : Lossy\nBits/(Pixel*Frame)                       : 0.189\nStream size                              : 600 MiB (86%)\nWriting library                          : XviD 1.1.2 (UTC 2006-11-01)\n\nAudio\nID                                       : 1\nFormat                                   : MPEG Audio\nFormat version                           : Version 1\nFormat profile                           : Layer 3\nMode                                     : Dual mono\nCodec ID                                 : 55\nCodec ID/Hint                            : MP3\nDuration                                 : 1h 46mn\nBit rate mode                            : Variable\nBit rate                                 : 120 Kbps\nNominal bit rate                         : 128 Kbps\nChannel(s)                               : 2 channels\nSampling rate                            : 48.0 KHz\nCompression mode                         : Lossy\nStream size                              : 91.5 MiB (13%)\nAlignment                                : Aligned on interleaves\nInterleave, duration                     : 24 ms (0.58 video frame)\nInterleave, preload duration             : 541 ms\nWriting library                          : LAME3.96r\nEncoding settings                        : -m d -V 4 -q 3 -lowpass 17.5 --abr 128\n\n","torrent":{"xt":"urn:btih:bda6784c791c53dfc29e07a8d23f6b1b76850213","amp;dn":"Balzac+and+the+Little+Chinese+Seamstress+%28Dai+Sijie%2C+2002%29","amp;tr":["udp%3A%2F%2Ftracker.openbittorrent.com%3A80","udp%3A%2F%2Fopen.demonii.com%3A1337","udp%3A%2F%2Ftracker.coppersurfer.tk%3A6969","udp%3A%2F%2Fexodus.desync.com%3A6969"],"infoHash":"bda6784c791c53dfc29e07a8d23f6b1b76850213","infoHashBuffer":{"type":"Buffer","data":[189,166,120,76,121,28,83,223,194,158,7,168,210,63,107,27,118,133,2,19]},"announce":[],"urlList":[]}}